<?xml version="1.0" encoding="UTF-8"?><!-- Generator: Adobe Illustrator 23.0.4, SVG Export Plug-In . SVG Version: 6.00 Build 0)  --><svg xmlns="http://www.w3.org/2000/svg" enable-background="new 0 0 220.8 187" id="Layer_1" version="1.1" viewBox="0 0 220.8 187" x="0px" xml:space="preserve" y="0px">
<g fill="url(#SVGID_1_)">
	<linearGradient gradientUnits="userSpaceOnUse" id="SVGID_1_" x2="220.77" y1="95.1" y2="95.1">
		<stop offset="0" stop-color="#BFF0CF"/>
		<stop offset="1" stop-color="#6FD6FF"/>
	</linearGradient>
	<path d="m160.7 29.5c-9.6-0.3-18.7 1.6-26.9 5.2-6.9 3-15 0.5-18.9-6-8-12.9-22.3-21.6-38.6-21.6-10.6 0-20.4 3.7-28.1 9.8-12.4 9.9-18.4 25.8-16.4 41.6l2 15.4c0.2 1.9-1.1 3.6-3 3.8-17.3 1.8-30.8 16.3-30.8 34.1 0 15.2 10 28.2 23.7 32.6 1.4 0.4 2.5 1.6 2.8 3 5 20.6 23.5 35.8 45.6 35.8 16.8 0 31.5-8.8 39.8-22.1 5.8-9.3 17-13.7 27.4-10.3 6 2 12.5 3 19.2 3 34 0 61.6-27.3 62.1-61.1 0.7-33.8-26.2-62.1-59.9-63.2z"/>
	<circle cx="138" cy="175.5" r="11.4"/>
	<circle cx="132.2" cy="11.3" r="11.3"/>
	<circle cx="12.1" cy="68.7" r="7.3"/>
</g>
</svg>